<svg xmlns="http://www.w3.org/2000/svg" id="Hour_Markers_-_Doubles" data-name="Hour Markers - Doubles" viewBox="0 0 250 250"><defs><style>.cls-1{fill:none;stroke:#fff;stroke-linecap:round;stroke-miterlimit:10;stroke-width:2.98px}</style></defs><title>face-002</title><line x1="122.01" x2="122.01" y1="1.75" y2="16.67" class="cls-1"/><line x1="186.62" x2="179.17" y1="18.26" y2="31.18" class="cls-1"/><line x1="231.74" x2="218.82" y1="63.37" y2="70.83" class="cls-1"/><line x1="248.25" x2="233.33" y1="127.99" y2="127.99" class="cls-1"/><line x1="231.74" x2="218.82" y1="186.62" y2="179.17" class="cls-1"/><line x1="186.63" x2="179.17" y1="231.74" y2="218.82" class="cls-1"/><line x1="127.99" x2="127.99" y1="248.25" y2="233.33" class="cls-1"/><line x1="63.38" x2="70.83" y1="231.74" y2="218.82" class="cls-1"/><line x1="18.26" x2="31.18" y1="186.63" y2="179.17" class="cls-1"/><line x1="1.75" x2="16.67" y1="122.01" y2="122.01" class="cls-1"/><line x1="18.26" x2="31.18" y1="63.38" y2="70.83" class="cls-1"/><line x1="63.37" x2="70.83" y1="18.26" y2="31.18" class="cls-1"/><line x1="127.99" x2="127.99" y1="1.75" y2="16.67" class="cls-1"/><line x1="248.25" x2="233.33" y1="122.01" y2="122.01" class="cls-1"/><line x1="122.01" x2="122.01" y1="248.25" y2="233.33" class="cls-1"/><line x1="1.75" x2="16.67" y1="127.99" y2="127.99" class="cls-1"/></svg>