<svg xmlns="http://www.w3.org/2000/svg" id="Hour_Markers_-_Singlets" data-name="Hour Markers - Singlets" viewBox="0 0 250 250"><defs><style>.cls-1,.cls-2{fill:none;stroke:#fff;stroke-linecap:round;stroke-miterlimit:10}.cls-2{stroke-width:.5px}</style></defs><title>face-001</title><line x1="125" x2="125" y1="1.25" y2="16.23" class="cls-1"/><line x1="186.87" x2="179.39" y1="17.83" y2="30.8" class="cls-1"/><line x1="232.17" x2="219.2" y1="63.12" y2="70.61" class="cls-1"/><line x1="248.75" x2="233.77" y1="125" y2="125" class="cls-1"/><line x1="232.17" x2="219.2" y1="186.87" y2="179.39" class="cls-1"/><line x1="186.88" x2="179.39" y1="232.17" y2="219.2" class="cls-1"/><line x1="125" x2="125" y1="248.75" y2="233.77" class="cls-1"/><line x1="63.13" x2="70.61" y1="232.17" y2="219.2" class="cls-1"/><line x1="17.83" x2="30.8" y1="186.88" y2="179.39" class="cls-1"/><line x1="1.25" x2="16.23" y1="125" y2="125" class="cls-1"/><line x1="17.83" x2="30.8" y1="63.13" y2="70.61" class="cls-1"/><line x1="63.12" x2="70.61" y1="17.83" y2="30.8" class="cls-1"/><line x1="138.01" x2="136.96" y1="1.25" y2="11.23" class="cls-2"/><line x1="150.87" x2="148.78" y1="3.29" y2="13.11" class="cls-2"/><line x1="163.45" x2="160.35" y1="6.66" y2="16.21" class="cls-2"/><line x1="175.61" x2="171.53" y1="11.33" y2="20.5" class="cls-2"/><line x1="198.14" x2="192.24" y1="24.33" y2="32.45" class="cls-2"/><line x1="208.26" x2="201.54" y1="32.53" y2="39.99" class="cls-2"/><line x1="217.47" x2="210.01" y1="41.74" y2="48.46" class="cls-2"/><line x1="225.67" x2="217.55" y1="51.86" y2="57.76" class="cls-2"/><line x1="238.67" x2="229.5" y1="74.39" y2="78.47" class="cls-2"/><line x1="243.34" x2="233.79" y1="86.55" y2="89.65" class="cls-2"/><line x1="246.71" x2="236.89" y1="99.13" y2="101.22" class="cls-2"/><line x1="248.75" x2="238.77" y1="111.99" y2="113.04" class="cls-2"/><line x1="248.75" x2="238.77" y1="138.01" y2="136.96" class="cls-2"/><line x1="246.71" x2="236.89" y1="150.87" y2="148.78" class="cls-2"/><line x1="243.34" x2="233.79" y1="163.45" y2="160.35" class="cls-2"/><line x1="238.67" x2="229.5" y1="175.61" y2="171.53" class="cls-2"/><line x1="225.67" x2="217.55" y1="198.14" y2="192.24" class="cls-2"/><line x1="217.47" x2="210.01" y1="208.26" y2="201.54" class="cls-2"/><line x1="208.26" x2="201.54" y1="217.47" y2="210.01" class="cls-2"/><line x1="198.14" x2="192.24" y1="225.67" y2="217.55" class="cls-2"/><line x1="175.61" x2="171.53" y1="238.67" y2="229.5" class="cls-2"/><line x1="163.45" x2="160.35" y1="243.34" y2="233.79" class="cls-2"/><line x1="150.87" x2="148.78" y1="246.71" y2="236.89" class="cls-2"/><line x1="138.01" x2="136.96" y1="248.75" y2="238.77" class="cls-2"/><line x1="111.99" x2="113.04" y1="248.75" y2="238.77" class="cls-2"/><line x1="99.13" x2="101.22" y1="246.71" y2="236.89" class="cls-2"/><line x1="86.55" x2="89.65" y1="243.34" y2="233.79" class="cls-2"/><line x1="74.39" x2="78.47" y1="238.67" y2="229.5" class="cls-2"/><line x1="51.86" x2="57.76" y1="225.67" y2="217.55" class="cls-2"/><line x1="41.74" x2="48.46" y1="217.47" y2="210.01" class="cls-2"/><line x1="32.53" x2="39.99" y1="208.26" y2="201.54" class="cls-2"/><line x1="24.33" x2="32.45" y1="198.14" y2="192.24" class="cls-2"/><line x1="11.33" x2="20.5" y1="175.61" y2="171.53" class="cls-2"/><line x1="6.66" x2="16.21" y1="163.45" y2="160.35" class="cls-2"/><line x1="3.29" x2="13.11" y1="150.87" y2="148.78" class="cls-2"/><line x1="1.25" x2="11.23" y1="138.01" y2="136.96" class="cls-2"/><line x1="1.25" x2="11.23" y1="111.99" y2="113.04" class="cls-2"/><line x1="3.29" x2="13.11" y1="99.13" y2="101.22" class="cls-2"/><line x1="6.66" x2="16.21" y1="86.55" y2="89.65" class="cls-2"/><line x1="11.33" x2="20.5" y1="74.39" y2="78.47" class="cls-2"/><line x1="24.33" x2="32.45" y1="51.86" y2="57.76" class="cls-2"/><line x1="32.53" x2="39.99" y1="41.74" y2="48.46" class="cls-2"/><line x1="41.74" x2="48.46" y1="32.53" y2="39.99" class="cls-2"/><line x1="51.86" x2="57.76" y1="24.33" y2="32.45" class="cls-2"/><line x1="74.39" x2="78.47" y1="11.33" y2="20.5" class="cls-2"/><line x1="86.55" x2="89.65" y1="6.66" y2="16.21" class="cls-2"/><line x1="99.13" x2="101.22" y1="3.29" y2="13.11" class="cls-2"/><line x1="111.99" x2="113.04" y1="1.25" y2="11.23" class="cls-2"/></svg>